<svg width="237" height="47" viewBox="0 0 237 47" fill="none" xmlns="http://www.w3.org/2000/svg">
<path d="M61.2544 25.0071V10.508H67.6667V25.0071C67.6667 29.282 70.1587 31.2125 73.419 31.2125C76.9256 31.2125 79.4176 29.282 79.4176 25.0071V10.508H85.5738V25.0071C85.5738 33.0446 80.8459 37.221 73.419 37.221C66.0415 37.221 61.2544 33.0446 61.2544 25.0071ZM90.1442 10.508H96.5565V36.5019H90.1442V10.508ZM100.831 9.8481C103.176 9.8481 105.106 11.7294 105.106 14.1722C105.106 16.5657 103.225 18.4963 100.831 18.4963C98.4378 18.4963 96.5565 16.5657 96.5565 14.1722C96.5565 11.7294 98.4378 9.8481 100.831 9.8481ZM114.631 33.3992V36.5019H108.219V0.894531H114.631V13.66C116.611 11.1187 119.615 9.789 123.279 9.789C129.534 9.789 135.542 14.517 135.542 23.5198C135.542 32.4733 129.544 37.2013 123.279 37.2013C119.615 37.221 116.611 35.8913 114.631 33.3992ZM121.753 31.2125C125.919 31.2125 128.874 28.4152 128.874 23.5296C128.874 18.5948 125.919 15.7974 121.753 15.7974C117.576 15.7974 114.631 18.5948 114.631 23.5296C114.631 28.4152 117.576 31.2125 121.753 31.2125ZM138.251 23.5296C138.251 14.5268 144.25 9.79885 150.514 9.79885C154.228 9.79885 157.232 11.1187 159.162 13.7191V10.5179H165.575V36.5019H159.162V33.35C157.232 35.8913 154.228 37.221 150.514 37.221C144.25 37.221 138.251 32.4832 138.251 23.5296ZM152.041 31.2125C156.207 31.2125 159.162 28.4152 159.162 23.5296C159.162 18.5948 156.207 15.7974 152.041 15.7974C147.924 15.7974 144.92 18.5948 144.92 23.5296C144.91 28.4152 147.914 31.2125 152.041 31.2125ZM169.603 28.819H176.163C176.616 30.7988 178.094 31.6164 179.877 31.6164C181.758 31.6164 183.029 30.6018 183.029 29.0751C183.029 24.0418 169.751 28.7205 169.751 18.1417C169.751 13.1577 174.124 9.79885 179.365 9.79885C184.605 9.79885 188.525 12.7538 189.077 17.5803H182.477C182.024 16.2111 181 15.4428 179.374 15.4428C177.7 15.4428 176.42 16.3589 176.42 17.8364C176.42 22.7712 189.697 18.0925 189.697 28.7698C189.697 33.6553 185.373 37.2111 179.877 37.2111C174.538 37.221 170.116 34.266 169.603 28.819ZM192.455 23.5296C192.455 14.5268 198.966 9.79885 205.575 9.79885C212.086 9.79885 218.695 14.4283 218.695 23.4804V25.47H198.808C199.518 29.5873 202.473 31.4686 205.831 31.4686C208.117 31.4686 209.752 30.7594 210.766 29.4297H218.193C215.957 34.6699 210.766 37.2111 205.831 37.2111C199.114 37.221 192.455 32.4832 192.455 23.5296ZM211.938 20.8898C211.328 16.615 208.323 15.039 205.575 15.039C202.473 15.039 199.724 16.9696 198.907 20.8898H211.938ZM221.601 10.508H228.013V36.5019H221.601V10.508ZM232.278 9.8481C234.623 9.8481 236.553 11.7294 236.553 14.1722C236.553 16.5657 234.672 18.4963 232.278 18.4963C229.885 18.4963 228.003 16.5657 228.003 14.1722C228.003 11.7294 229.885 9.8481 232.278 9.8481Z" fill="white"/>
<path d="M44.7759 31.5967C44.5198 32.2468 44.244 32.887 43.9387 33.5076C43.4166 33.5174 42.9143 33.4288 42.4021 33.3401C41.1807 33.1234 39.9889 32.7688 38.7576 32.5817C36.7187 32.2665 34.6798 32.2074 32.631 32.4142C30.5921 32.6112 28.5925 33.0545 26.6718 33.7538C21.6878 35.5859 17.5015 38.4719 14.5958 43.0324L14.0147 43.9682C12.0742 43.062 10.2816 41.88 8.68587 40.4813C8.83362 40.2646 9.37537 39.5357 10.0747 38.8659C13.1873 35.6155 16.9204 33.3303 21.1263 31.8035C26.1104 29.9912 31.5771 29.5775 36.7483 30.7397C37.684 30.9367 38.6 31.2224 39.5555 31.3997C41.1906 31.6952 43.1211 31.7444 44.7759 31.5967ZM39.1713 27.903C36.3838 27.9916 33.6948 27.44 31.055 26.6126C29.6366 26.1694 28.169 25.9133 26.7014 25.736C24.9087 25.5193 23.1061 25.4602 21.2938 25.5193C19.048 25.5981 16.8416 25.8936 14.6648 26.3959C11.168 27.1938 7.85848 28.4841 4.70651 30.1882C3.99732 30.5723 2.72668 31.3701 2.45088 31.5376C3.07143 33.1628 3.86927 34.6896 4.83456 36.1079C6.381 34.7487 8.22293 33.4485 9.99591 32.4142C11.6901 31.4194 13.4631 30.6019 15.305 29.9025C16.9401 29.282 18.6244 28.7993 20.3383 28.4546C21.6779 28.1886 23.0273 28.0113 24.3866 27.8931C26.7605 27.6863 29.1146 27.834 31.4687 28.1985C32.7492 28.3955 34.0001 28.7205 35.2511 29.0653C37.6347 29.7351 40.0677 29.9124 42.5302 29.6957C43.5545 29.607 44.5691 29.4396 45.5639 29.1835C45.7708 28.3856 45.9382 27.5582 46.0663 26.7308C44.5789 27.1445 41.6535 27.7946 39.1713 27.903ZM46.2633 22.1112C45.1896 22.4461 44.1751 22.781 43.1408 23.047C41.5649 23.4607 39.9593 23.7562 38.3439 23.9335C36.4232 24.1403 34.5025 24.1502 32.5719 23.9335C30.8974 23.7463 29.2525 23.4016 27.6469 22.8795C24.7708 21.865 21.8059 21.1558 18.7722 20.8504C15.8172 20.5254 12.8622 20.5845 9.91711 20.9194C7.31674 21.2149 4.75576 21.7566 2.23419 22.5052C1.80079 22.6333 1.36739 22.7712 0.953698 22.9091C0.953698 23.0765 0.943848 23.244 0.943848 23.4213C0.943848 24.6525 1.04235 25.864 1.23934 27.046C4.01702 25.8049 7.24779 24.6919 10.2126 24.0517C12.6652 23.5198 15.1376 23.175 17.6394 23.1356C19.4617 23.1061 21.2741 23.1455 23.0864 23.3917C24.7018 23.6084 26.3074 23.8941 27.8735 24.3472C29.7351 24.8791 31.5574 25.5094 33.4879 25.7754C35.6451 26.0709 37.8022 26.1004 39.9692 25.8345C41.5353 25.6375 43.0817 25.3223 44.5986 24.8988C45.1601 24.7412 45.7117 24.554 46.2731 24.3669C46.283 24.0615 46.2928 23.7463 46.2928 23.4311C46.3027 22.9879 46.283 22.5446 46.2633 22.1112ZM43.2492 34.7782C43.1999 34.7684 43.131 34.7487 43.0325 34.729C40.5306 34.2857 38.0189 34.2857 35.5269 34.7487C32.828 35.251 30.2966 36.2163 27.9523 37.6544C25.1943 39.3486 22.9288 41.5254 21.3627 44.3819C21.0968 44.8645 20.8407 45.3472 20.6929 45.9086C21.6483 46.0367 22.6235 46.1056 23.6183 46.1056C25.1648 46.1056 26.6817 45.948 28.1394 45.6525C31.1338 40.0381 36.0095 37.3983 42.1263 36.5216C42.5301 35.9602 42.9044 35.3791 43.2492 34.7782ZM3.72152 18.7524C5.54376 18.4274 7.38569 18.2599 9.22762 18.1811C12.4978 18.0531 15.7483 18.2796 18.9692 18.9297C20.7323 19.2843 22.4757 19.7374 24.1699 20.3579C26.2286 21.1164 28.3364 21.6975 30.5133 21.9832C32.956 22.2984 35.4087 22.2787 37.8416 21.9832C40.7079 21.5793 44.3425 20.7125 46.0367 19.9837C45.9382 19.3336 45.8102 18.6933 45.6526 18.0629C45.6329 18.0728 45.6132 18.0728 45.5935 18.0826C43.4757 18.7918 41.3186 19.3434 39.1319 19.7374C36.4528 20.22 33.7342 20.3776 31.0156 20.2299C29.479 20.1412 27.9523 19.9246 26.4551 19.57C24.9776 19.2252 23.5395 18.7229 22.1211 18.191C18.8707 16.9597 15.5119 16.2013 12.0545 15.8368C9.50342 15.5709 6.95229 15.5019 4.39131 15.6891C3.78062 15.7383 2.67743 15.8565 2.23419 15.9156C1.85989 16.9696 1.57424 18.0531 1.35754 19.1661C2.17509 19.0184 2.95323 18.8903 3.72152 18.7524ZM3.51467 12.9902C6.57799 12.9508 9.60192 13.2266 12.616 13.7979C14.2609 14.1131 15.8665 14.5268 17.4621 15.0193C18.6934 15.4034 19.8951 15.8959 21.0968 16.3687C23.51 17.3143 26.002 17.9053 28.5827 18.1811C31.3801 18.4766 34.1676 18.3978 36.9453 18.0531C38.1174 17.9053 39.2698 17.7083 40.4223 17.4719C41.5353 17.2454 42.6286 16.9499 43.722 16.6544C44.1849 16.5362 44.6479 16.3687 45.1207 16.2111C44.9237 15.63 44.707 15.0488 44.4706 14.4874C42.9044 14.9306 41.358 15.2951 39.7919 15.6103C37.5953 16.0437 35.389 16.3392 33.153 16.4278C29.9715 16.5559 26.8196 16.3589 23.7168 15.5906C22.328 15.2458 20.9589 14.842 19.6488 14.2904C17.7281 13.4827 15.7975 12.7243 13.798 12.1333C11.2961 11.3945 8.73512 10.9316 6.15445 10.5967C5.7703 10.5474 5.3763 10.5277 4.97246 10.4982C4.43071 11.2862 3.92837 12.1136 3.48512 12.9607C3.50482 12.9902 3.51467 12.9902 3.51467 12.9902ZM6.60754 8.44941C6.63709 8.45926 6.67649 8.47896 6.70604 8.47896C7.92743 8.68581 9.13897 8.9813 10.3407 9.2965C12.6061 9.8875 14.8125 10.6558 16.9204 11.6408C20.0921 13.1281 23.4213 14.0442 26.8983 14.4283C29.8336 14.7533 32.7787 14.6943 35.714 14.3791C38.078 14.123 40.4124 13.6896 42.7271 13.138C43.2492 13.0099 43.5447 12.9016 43.6924 12.8425C43.4166 12.3303 43.131 11.8279 42.8158 11.3354C41.4861 11.6014 40.1563 11.8772 38.8167 12.0939C36.6005 12.4583 34.3646 12.6947 32.1188 12.7538C28.9176 12.8425 25.7361 12.6258 22.5939 11.9166C20.7323 11.493 18.9002 10.9513 17.1568 10.1731C15.0391 9.22755 12.9607 8.19331 10.7445 7.47427C9.93681 7.20832 9.12912 6.93252 8.29188 6.73552C7.69103 7.27727 7.12959 7.84857 6.60754 8.44941ZM9.99591 5.32699C12.35 6.23318 18.9593 9.592 22.5447 10.1633C24.6329 10.5868 26.7408 10.8725 28.8683 10.9217C30.6118 10.9611 32.3453 10.9808 34.0888 10.8528C35.8618 10.7247 37.6347 10.5277 39.388 10.2519C40.1662 10.1337 40.9542 10.0254 41.7619 9.8087C41.3876 9.30635 40.9837 8.8237 40.57 8.36076C40.1366 8.41986 39.7229 8.46911 39.3092 8.53806C37.3392 8.85326 35.3496 9.0404 33.3599 9.1192C29.2426 9.2768 25.1549 9.06011 21.1362 8.05541C19.3336 7.60232 17.5803 7.03102 15.8665 6.31198C14.4382 5.71114 13.1085 4.91329 11.7196 4.23365C11.6901 4.21395 11.6507 4.2041 11.6211 4.1844C11.0597 4.539 10.5081 4.91329 9.97621 5.30729C9.98606 5.31714 9.98606 5.31714 9.99591 5.32699ZM13.335 3.37671C16.2309 4.94284 19.3238 5.95738 22.5447 6.60748C24.5541 7.01132 26.5832 7.26742 28.6221 7.35607C30.7989 7.45457 32.9856 7.46442 35.1624 7.29697C36.4626 7.19847 37.7628 7.10982 39.1418 6.91282C38.6 6.40063 38.0386 5.91798 37.4476 5.46489H37.4377C36.896 5.50429 36.3444 5.57324 35.8027 5.60279C33.6751 5.69143 31.5475 5.74069 29.4199 5.64219C27.0264 5.53384 24.6526 5.25804 22.3083 4.77539C19.8261 4.2632 17.403 3.52446 15.0883 2.45082C15.0785 2.44097 15.0686 2.44097 15.0588 2.43112C14.4185 2.69706 13.798 2.98271 13.1873 3.29791C13.2365 3.32746 13.2858 3.34716 13.335 3.37671ZM35.3003 3.9874C34.2759 3.36686 33.1924 2.83496 32.0695 2.38187C30.8088 2.36217 29.5578 2.25382 28.3069 2.14547C26.2187 1.94847 24.1404 1.64312 22.1014 1.14078C21.7567 1.06198 21.4218 0.963481 21.0771 0.894531C19.836 1.03243 18.6343 1.26883 17.4621 1.60373C23.2736 3.67221 29.1835 4.1844 35.3003 3.9874Z" fill="#51D1C9"/>
</svg>
